<svg width="1441" height="766" viewBox="0 0 1441 766" fill="none" xmlns="http://www.w3.org/2000/svg">
<g opacity="0.3">
<mask id="mask0_0_24" style="mask-type:luminance" maskUnits="userSpaceOnUse" x="0" y="0" width="1441" height="840">
<path d="M1440.85 839.046H0.847656V0.653625H1440.85V839.046Z" fill="white"/>
</mask>
<g mask="url(#mask0_0_24)">
<path d="M1304.05 207.174C1304.05 209.478 1302.13 211.398 1299.63 211.398C1297.33 211.398 1295.41 209.478 1295.41 207.174C1295.41 204.678 1297.33 202.758 1299.63 202.758C1302.13 202.758 1304.05 204.678 1304.05 207.174Z" fill="white" stroke="#A588FF"/>
<path d="M1241.26 467.91C1241.26 470.214 1239.34 472.134 1237.04 472.134C1234.73 472.134 1232.62 470.214 1232.62 467.91C1232.62 465.606 1234.73 463.493 1237.04 463.493C1239.34 463.493 1241.26 465.606 1241.26 467.91Z" fill="white" stroke="#A588FF"/>
<path d="M1044.27 717.125C1044.27 719.429 1042.35 721.349 1039.85 721.349C1037.55 721.349 1035.63 719.429 1035.63 717.125C1035.63 714.821 1037.55 712.901 1039.85 712.901C1042.35 712.901 1044.27 714.821 1044.27 717.125Z" fill="white" stroke="#A588FF"/>
<path style="mix-blend-mode:multiply" opacity="0.8" d="M1051.75 717.125C1051.75 723.653 1046.57 729.029 1039.85 729.029C1033.32 729.029 1027.95 723.653 1027.95 717.125C1027.95 710.597 1033.32 705.221 1039.85 705.221C1046.57 705.221 1051.75 710.597 1051.75 717.125Z" fill="#0066FF"/>
<path d="M1044.27 681.606C1044.27 683.91 1042.35 685.83 1039.85 685.83C1037.55 685.83 1035.63 683.91 1035.63 681.606C1035.63 679.302 1037.55 677.19 1039.85 677.19C1042.35 677.19 1044.27 679.302 1044.27 681.606Z" fill="white" stroke="#A588FF"/>
<path style="mix-blend-mode:multiply" opacity="0.8" d="M1051.75 681.605C1051.75 688.133 1046.57 693.509 1039.85 693.509C1033.32 693.509 1027.95 688.133 1027.95 681.605C1027.95 675.077 1033.32 669.701 1039.85 669.701C1046.57 669.701 1051.75 675.077 1051.75 681.605Z" fill="#0066FF"/>
<path d="M1044.27 752.645C1044.27 754.949 1042.35 756.869 1039.85 756.869C1037.55 756.869 1035.63 754.949 1035.63 752.645C1035.63 750.341 1037.55 748.421 1039.85 748.421C1042.35 748.421 1044.27 750.341 1044.27 752.645Z" fill="white" stroke="#A588FF"/>
<path style="mix-blend-mode:multiply" opacity="0.8" d="M1051.75 752.645C1051.75 759.173 1046.57 764.549 1039.85 764.549C1033.32 764.549 1027.95 759.173 1027.95 752.645C1027.95 746.117 1033.32 740.741 1039.85 740.741C1046.57 740.741 1051.75 746.117 1051.75 752.645Z" fill="#0066FF"/>
<path d="M137.645 510.918C137.645 508.614 139.565 506.694 142.061 506.694C144.365 506.694 146.285 508.614 146.285 510.918C146.285 513.414 144.365 515.334 142.061 515.334C139.565 515.334 137.645 513.414 137.645 510.918Z" fill="white" stroke="#A588FF"/>
<path d="M366.51 621.125C366.51 618.821 368.43 616.901 370.926 616.901C373.23 616.901 375.15 618.821 375.15 621.125C375.15 623.621 373.23 625.541 370.734 625.541C368.43 625.541 366.51 623.621 366.51 621.125Z" fill="white" stroke="#A588FF"/>
<path style="mix-blend-mode:multiply" opacity="0.8" d="M359.019 621.125C359.019 614.597 364.203 609.221 370.731 609.221C377.451 609.221 382.635 614.597 382.635 621.125C382.635 627.653 377.451 633.029 370.731 633.029C364.203 633.029 359.019 627.653 359.019 621.125Z" fill="#0066FF"/>
<path d="M200.428 250.182C200.428 247.878 202.347 245.958 204.651 245.958C206.955 245.958 208.875 247.878 208.875 250.182C208.875 252.486 206.955 254.598 204.651 254.598C202.347 254.598 200.428 252.486 200.428 250.182Z" fill="white" stroke="#A588FF"/>
<path style="mix-blend-mode:multiply" opacity="0.8" d="M192.747 250.182C192.747 243.654 198.123 238.278 204.651 238.278C211.179 238.278 216.555 243.654 216.555 250.182C216.555 256.71 211.179 262.086 204.651 262.086C198.123 262.086 192.747 256.71 192.747 250.182Z" fill="#0066FF"/>
<path d="M397.417 0.965122C397.417 -1.33888 399.337 -3.25888 401.833 -3.25888C404.137 -3.25888 406.057 -1.33888 406.057 0.965122C406.057 3.26912 404.137 5.18912 401.833 5.18912C399.337 5.18912 397.417 3.26912 397.417 0.965122Z" fill="white" stroke="#A588FF"/>
<path d="M397.417 36.4852C397.417 34.1812 399.337 32.2612 401.833 32.2612C404.137 32.2612 406.057 34.1812 406.057 36.4852C406.057 38.7892 404.137 40.9012 401.833 40.9012C399.337 40.9012 397.417 38.7892 397.417 36.4852Z" fill="white" stroke="#A588FF"/>
<g style="mix-blend-mode:soft-light">
<path d="M1339.75 14.0217C1339.75 16.5177 1337.83 18.4377 1335.53 18.4377C1333.03 18.4377 1331.11 16.5177 1331.11 14.0217C1331.11 11.7177 1333.03 9.79768 1335.53 9.79768C1337.83 9.79768 1339.75 11.7177 1339.75 14.0217Z" fill="white"/>
<path d="M1302.7 308.357C1302.7 310.661 1300.78 312.581 1298.47 312.581C1296.17 312.581 1294.06 310.661 1294.06 308.357C1294.06 305.861 1296.17 303.941 1298.47 303.941C1300.78 303.941 1302.7 305.861 1302.7 308.357Z" fill="white"/>
<path d="M1050.41 96.0059C1050.41 98.3099 1048.49 100.23 1046.18 100.23C1043.69 100.23 1041.77 98.3099 1041.77 96.0059C1041.77 93.5099 1043.69 91.5899 1046.18 91.5899C1048.49 91.5899 1050.41 93.5099 1050.41 96.0059Z" fill="white"/>
<path d="M1062.7 96.0059C1062.7 98.3099 1060.78 100.23 1058.47 100.23C1056.17 100.23 1054.25 98.3099 1054.25 96.0059C1054.25 93.5099 1056.17 91.5899 1058.47 91.5899C1060.78 91.5899 1062.7 93.5099 1062.7 96.0059Z" fill="white"/>
<path d="M1377.19 187.397C1377.19 189.893 1375.27 191.813 1372.97 191.813C1370.67 191.813 1368.55 189.893 1368.55 187.397C1368.55 185.093 1370.67 183.173 1372.97 183.173C1375.27 183.173 1377.19 185.093 1377.19 187.397Z" fill="white"/>
<path d="M1241.26 249.222C1241.26 251.526 1239.34 253.638 1237.03 253.638C1234.73 253.638 1232.62 251.526 1232.62 249.222C1232.62 246.918 1234.73 244.998 1237.03 244.998C1239.34 244.998 1241.26 246.918 1241.26 249.222Z" fill="white"/>
<path d="M725.161 32.8371C725.161 35.1411 723.241 37.0611 720.745 37.0611C718.441 37.0611 716.521 35.1411 716.521 32.8371C716.521 30.3411 718.441 28.4211 720.745 28.4211C723.241 28.4211 725.161 30.3411 725.161 32.8371Z" fill="white"/>
<path d="M1339.75 702.149C1339.75 699.653 1337.83 697.733 1335.53 697.733C1333.03 697.733 1331.11 699.653 1331.11 702.149C1331.11 704.453 1333.03 706.373 1335.53 706.373C1337.83 706.373 1339.75 704.453 1339.75 702.149Z" fill="white"/>
<path d="M1302.7 407.814C1302.7 405.51 1300.78 403.59 1298.47 403.59C1296.17 403.59 1294.06 405.51 1294.06 407.814C1294.06 410.31 1296.17 412.23 1298.47 412.23C1300.78 412.23 1302.7 410.31 1302.7 407.814Z" fill="white"/>
<path d="M1304.05 509.958C1304.05 507.654 1302.13 505.733 1299.63 505.733C1297.33 505.733 1295.41 507.654 1295.41 509.958C1295.41 512.454 1297.33 514.373 1299.63 514.373C1302.13 514.373 1304.05 512.454 1304.05 509.958Z" fill="white"/>
<path d="M1377.19 528.774C1377.19 526.278 1375.27 524.358 1372.97 524.358C1370.67 524.358 1368.55 526.278 1368.55 528.774C1368.55 531.078 1370.67 532.998 1372.97 532.998C1375.27 532.998 1377.19 531.078 1377.19 528.774Z" fill="white"/>
<path d="M979.563 54.1493C979.563 56.4533 977.643 58.3733 975.147 58.3733C972.843 58.3733 970.923 56.4533 970.923 54.1493C970.923 51.6533 972.843 49.7333 975.147 49.7333C977.643 49.7333 979.563 51.6533 979.563 54.1493Z" fill="white"/>
<path d="M952.107 32.6451C952.299 35.1411 950.379 37.2531 948.075 37.4451C945.771 37.6371 943.659 35.9091 943.467 33.4131C943.275 31.1091 945.003 28.9971 947.307 28.8051C949.803 28.6131 951.723 30.3411 952.107 32.6451Z" fill="white"/>
<path d="M922.732 13.8294C923.116 16.1334 921.58 18.4374 919.276 18.8214C916.972 19.2054 914.668 17.6694 914.284 15.3654C913.9 12.8694 915.436 10.7574 917.74 10.3734C920.044 9.7974 922.348 11.5254 922.732 13.8294Z" fill="white"/>
<path d="M892.007 -2.49039C892.583 -0.186393 891.239 2.11761 888.935 2.69361C886.631 3.46161 884.327 2.11761 883.751 -0.186391C882.983 -2.49039 884.519 -4.9864 886.631 -5.5624C888.935 -6.1384 891.431 -4.79439 892.007 -2.49039Z" fill="white"/>
<path d="M725.161 683.334C725.161 681.03 723.241 679.11 720.745 679.11C718.441 679.11 716.521 681.03 716.521 683.334C716.521 685.83 718.441 687.75 720.745 687.75C723.241 687.75 725.161 685.83 725.161 683.334Z" fill="white"/>
<path d="M101.929 702.149C101.929 699.653 103.849 697.733 106.153 697.733C108.649 697.733 110.569 699.653 110.569 702.149C110.569 704.453 108.649 706.373 106.153 706.373C103.849 706.373 101.929 704.453 101.929 702.149Z" fill="white"/>
<path d="M138.986 407.814C138.986 405.51 140.906 403.59 143.21 403.59C145.514 403.59 147.434 405.51 147.434 407.814C147.434 410.31 145.514 412.23 143.21 412.23C140.906 412.23 138.986 410.31 138.986 407.814Z" fill="white"/>
<path d="M391.274 620.165C391.274 617.861 393.194 615.941 395.498 615.941C397.994 615.941 399.914 617.861 399.914 620.165C399.914 622.661 397.994 624.581 395.498 624.581C393.194 624.581 391.274 622.661 391.274 620.165Z" fill="white"/>
<path d="M378.985 620.165C378.985 617.861 380.905 615.941 383.209 615.941C385.513 615.941 387.433 617.861 387.433 620.165C387.433 622.661 385.513 624.581 383.209 624.581C380.905 624.581 378.985 622.661 378.985 620.165Z" fill="white"/>
<path d="M64.4885 528.774C64.4885 526.278 66.4085 524.358 68.7125 524.358C71.0165 524.358 72.9365 526.278 72.9365 528.774C72.9365 531.078 71.0165 532.998 68.7125 532.998C66.4085 532.998 64.4885 531.078 64.4885 528.774Z" fill="white"/>
<path d="M200.427 466.95C200.427 464.646 202.347 462.533 204.651 462.533C206.955 462.533 208.875 464.646 208.875 466.95C208.875 469.254 206.955 471.173 204.651 471.173C202.347 471.173 200.427 469.254 200.427 466.95Z" fill="white"/>
<path d="M101.929 14.0217C101.929 16.5177 103.849 18.4377 106.153 18.4377C108.649 18.4377 110.569 16.5177 110.569 14.0217C110.569 11.7177 108.649 9.79768 106.153 9.79768C103.849 9.79768 101.929 11.7177 101.929 14.0217Z" fill="white"/>
<path d="M138.986 308.357C138.986 310.661 140.906 312.581 143.21 312.581C145.514 312.581 147.434 310.661 147.434 308.357C147.434 305.861 145.514 303.941 143.21 303.941C140.906 303.941 138.986 305.861 138.986 308.357Z" fill="white"/>
<path d="M137.644 206.214C137.644 208.518 139.564 210.438 142.06 210.438C144.364 210.438 146.284 208.518 146.284 206.214C146.284 203.718 144.364 201.798 142.06 201.798C139.564 201.798 137.644 203.718 137.644 206.214Z" fill="white"/>
<path d="M64.4885 187.397C64.4885 189.893 66.4085 191.813 68.7125 191.813C71.0165 191.813 72.9365 189.893 72.9365 187.397C72.9365 185.093 71.0165 183.173 68.7125 183.173C66.4085 183.173 64.4885 185.093 64.4885 187.397Z" fill="white"/>
<path d="M462.122 662.022C462.122 659.718 464.042 657.798 466.538 657.798C468.842 657.798 470.762 659.718 470.762 662.022C470.762 664.518 468.842 666.438 466.538 666.438C464.042 666.438 462.122 664.518 462.122 662.022Z" fill="white"/>
<path d="M489.577 683.525C489.385 681.029 491.113 678.917 493.609 678.725C495.913 678.533 498.025 680.261 498.217 682.757C498.409 685.061 496.681 687.173 494.377 687.365C491.881 687.557 489.769 685.829 489.577 683.525Z" fill="white"/>
<path d="M518.955 702.342C518.571 700.038 520.107 697.734 522.411 697.35C524.715 696.966 527.02 698.502 527.404 700.806C527.788 703.302 526.252 705.414 523.948 705.798C521.452 706.374 519.339 704.646 518.955 702.342Z" fill="white"/>
<path d="M549.671 718.661C549.095 716.357 550.439 714.053 552.743 713.477C555.047 712.709 557.351 714.053 557.927 716.357C558.695 718.661 557.159 721.157 554.855 721.733C552.551 722.309 550.247 720.965 549.671 718.661Z" fill="white"/>
<path d="M581.739 732.293C580.971 729.989 582.123 727.493 584.235 726.725C586.539 725.957 589.035 727.109 589.803 729.221C590.571 731.525 589.419 734.021 587.307 734.789C585.003 735.557 582.507 734.405 581.739 732.293Z" fill="white"/>
<path d="M1046.18 358.086C1046.18 537.798 900.456 683.334 720.744 683.334C541.224 683.334 395.496 537.798 395.496 358.086C395.496 178.374 541.224 32.8377 720.744 32.8377C900.456 32.8377 1046.18 178.374 1046.18 358.086Z" stroke="#A588FF"/>
<path d="M1046.19 358.086H1440.75" stroke="#A588FF"/>
<path d="M1041.38 308.358H1298.47" stroke="#A588FF"/>
<path d="M1108.01 308.357L1210.15 206.213H1299.62" stroke="#A588FF"/>
<path d="M1001.83 193.733L1181.55 14.0211H1318.25" stroke="#A588FF"/>
<path d="M1326.89 14.0212C1326.89 18.8212 1323.05 22.6612 1318.25 22.6612C1313.45 22.6612 1309.61 18.8212 1309.61 14.0212C1309.61 9.22117 1313.45 5.38116 1318.25 5.38116C1323.05 5.38116 1326.89 9.22117 1326.89 14.0212Z" stroke="#A588FF"/>
<path d="M1138.35 308.357L1197.29 249.221H1237.03" stroke="#A588FF"/>
<path d="M1307.11 14.0212C1307.11 18.8212 1303.27 22.6612 1298.47 22.6612C1293.67 22.6612 1289.83 18.8212 1289.83 14.0212C1289.83 9.22117 1293.67 5.38116 1298.47 5.38116C1303.27 5.38116 1307.11 9.22117 1307.11 14.0212Z" stroke="#A588FF"/>
<path d="M1287.14 14.0212C1287.14 18.8212 1283.3 22.6612 1278.69 22.6612C1273.89 22.6612 1270.05 18.8212 1270.05 14.0212C1270.05 9.22117 1273.89 5.38116 1278.69 5.38116C1283.3 5.38116 1287.14 9.22117 1287.14 14.0212Z" stroke="#A588FF"/>
<path d="M1046.19 363.078H1439.02" stroke="#A588FF"/>
<path d="M1080.55 308.358L1200.17 187.398H1364.33" stroke="#A588FF"/>
<path d="M1381.61 187.398C1381.61 192.198 1377.77 196.038 1372.97 196.038C1368.17 196.038 1364.33 192.198 1364.33 187.398C1364.33 182.79 1368.17 178.95 1372.97 178.95C1377.77 178.95 1381.61 182.79 1381.61 187.398Z" stroke="#A588FF"/>
<path d="M729.386 32.8377C729.386 37.6377 725.546 41.4777 720.746 41.4777C716.138 41.4777 712.298 37.6377 712.298 32.8377C712.298 28.0377 716.138 24.1977 720.746 24.1977C725.546 24.1977 729.386 28.0377 729.386 32.8377Z" stroke="#A588FF"/>
<path d="M1011.82 96.0055C1011.82 100.806 1007.98 104.646 1003.18 104.646C998.378 104.646 994.538 100.806 994.538 96.0055C994.538 91.2055 998.378 87.3655 1003.18 87.3655C1007.98 87.3655 1011.82 91.2055 1011.82 96.0055Z" stroke="#A588FF"/>
<path d="M979.755 96.0055H1026.6" stroke="#A588FF"/>
<path d="M1003.17 119.429V72.5812" stroke="#A588FF"/>
<path d="M1348.39 308.358C1348.39 312.966 1344.55 316.998 1339.75 316.998C1334.95 316.998 1331.11 312.966 1331.11 308.358C1331.11 303.558 1334.95 299.718 1339.75 299.718C1344.55 299.718 1348.39 303.558 1348.39 308.358Z" stroke="#A588FF"/>
<path d="M1316.33 308.358H1363.18" stroke="#A588FF"/>
<path d="M1339.75 331.589V284.933" stroke="#A588FF"/>
<path d="M1119.14 76.4211H1440.74" stroke="#A588FF"/>
<path d="M1109.54 86.0211H1440.74" stroke="#A588FF"/>
<path d="M1099.95 95.6211H1440.75" stroke="#A588FF"/>
<path d="M1041.38 407.813H1298.47" stroke="#A588FF"/>
<path d="M1108.01 407.813L1210.15 509.957H1299.62" stroke="#A588FF"/>
<path d="M1001.83 522.438L1181.55 702.15H1318.25" stroke="#A588FF"/>
<path d="M1326.89 702.15C1326.89 697.35 1323.05 693.51 1318.25 693.51C1313.45 693.51 1309.61 697.35 1309.61 702.15C1309.61 706.95 1313.45 710.79 1318.25 710.79C1323.05 710.79 1326.89 706.95 1326.89 702.15Z" stroke="#A588FF"/>
<path d="M1138.35 407.813L1197.29 466.949H1237.03" stroke="#A588FF"/>
<path d="M1307.11 702.15C1307.11 697.35 1303.27 693.51 1298.47 693.51C1293.67 693.51 1289.83 697.35 1289.83 702.15C1289.83 706.95 1293.67 710.79 1298.47 710.79C1303.27 710.79 1307.11 706.95 1307.11 702.15Z" stroke="#A588FF"/>
<path d="M1287.14 702.15C1287.14 697.35 1283.3 693.51 1278.69 693.51C1273.89 693.51 1270.05 697.35 1270.05 702.15C1270.05 706.95 1273.89 710.79 1278.69 710.79C1283.3 710.79 1287.14 706.95 1287.14 702.15Z" stroke="#A588FF"/>
<path d="M1080.55 407.813L1200.17 528.773H1364.33" stroke="#A588FF"/>
<path d="M1381.61 528.773C1381.61 523.973 1377.77 520.133 1372.97 520.133C1368.17 520.133 1364.33 523.973 1364.33 528.773C1364.33 533.381 1368.17 537.221 1372.97 537.221C1377.77 537.221 1381.61 533.381 1381.61 528.773Z" stroke="#A588FF"/>
<path d="M1089.19 716.166C1089.19 711.366 1085.35 707.526 1080.55 707.526C1075.75 707.526 1071.91 711.366 1071.91 716.166C1071.91 720.966 1075.75 724.806 1080.55 724.806C1085.35 724.806 1089.19 720.966 1089.19 716.166Z" stroke="#A588FF"/>
<path d="M1057.13 716.166H1103.98" stroke="#A588FF"/>
<path d="M1080.55 692.741V739.589" stroke="#A588FF"/>
<path d="M1119.14 639.75H1440.74" stroke="#A588FF"/>
<path d="M1109.54 630.15H1440.74" stroke="#A588FF"/>
<path d="M1099.95 620.55H1440.75" stroke="#A588FF"/>
<path d="M924.646 104.646L975.143 54.1499" stroke="#A588FF"/>
<path d="M901.802 87.7499L947.69 33.0299" stroke="#A588FF"/>
<path d="M877.607 72.9657L918.503 14.5977" stroke="#A588FF"/>
<path d="M852.075 60.4851L887.787 -1.33887" stroke="#A588FF"/>
<path d="M825.768 50.1174L855.912 -14.5866" stroke="#A588FF"/>
<path d="M720.745 32.8375V-38.5865L750.121 -67.9625V-121.915" stroke="#A588FF"/>
<path d="M729.386 683.333C729.386 678.533 725.546 674.693 720.746 674.693C716.138 674.693 712.298 678.533 712.298 683.333C712.298 688.133 716.138 691.973 720.746 691.973C725.546 691.973 729.386 688.133 729.386 683.333Z" stroke="#A588FF"/>
<path d="M949.035 589.83L1039.85 680.646V751.686" stroke="#A588FF" stroke-linecap="square"/>
<path d="M720.745 -37.6267C817.705 -37.6267 906.409 -2.68274 975.145 55.1093" stroke="#A588FF"/>
<path d="M958.057 674.693C892.009 724.421 809.833 753.797 720.745 753.797" stroke="#A588FF"/>
<path d="M1099.95 471.75C1092.46 496.518 1082.67 520.326 1070.95 542.598" stroke="#A588FF"/>
<path d="M395.497 358.086H0.745178" stroke="#A588FF"/>
<path d="M400.296 407.813H143.208" stroke="#A588FF"/>
<path d="M333.675 407.813L231.531 509.957H142.059" stroke="#A588FF"/>
<path d="M439.85 522.438L260.138 702.15H123.434" stroke="#A588FF"/>
<path d="M114.795 702.15C114.795 697.35 118.635 693.51 123.435 693.51C128.235 693.51 132.075 697.35 132.075 702.15C132.075 706.95 128.235 710.79 123.435 710.79C118.635 710.79 114.795 706.95 114.795 702.15Z" stroke="#A588FF"/>
<path d="M303.335 407.813L244.199 466.949H204.646" stroke="#A588FF"/>
<path d="M134.568 702.15C134.568 697.35 138.408 693.51 143.208 693.51C148.008 693.51 151.848 697.35 151.848 702.15C151.848 706.95 148.008 710.79 143.208 710.79C138.408 710.79 134.568 706.95 134.568 702.15Z" stroke="#A588FF"/>
<path d="M154.346 702.15C154.346 697.35 158.378 693.51 162.986 693.51C167.786 693.51 171.626 697.35 171.626 702.15C171.626 706.95 167.786 710.79 162.986 710.79C158.378 710.79 154.346 706.95 154.346 702.15Z" stroke="#A588FF"/>
<path d="M395.496 353.093H2.66382" stroke="#A588FF"/>
<path d="M361.129 407.813L241.513 528.773H77.3531" stroke="#A588FF"/>
<path d="M60.0754 528.773C60.0754 523.973 63.9154 520.133 68.7154 520.133C73.5154 520.133 77.3554 523.973 77.3554 528.773C77.3554 533.381 73.5154 537.221 68.7154 537.221C63.9154 537.221 60.0754 533.381 60.0754 528.773Z" stroke="#A588FF"/>
<path d="M429.864 620.166C429.864 615.366 433.704 611.526 438.504 611.526C443.304 611.526 447.144 615.366 447.144 620.166C447.144 624.966 443.304 628.806 438.504 628.806C433.704 628.806 429.864 624.966 429.864 620.166Z" stroke="#A588FF"/>
<path d="M461.93 620.165H415.083" stroke="#A588FF"/>
<path d="M438.505 596.741V643.589" stroke="#A588FF"/>
<path d="M93.2879 407.813C93.2879 403.205 97.1279 399.173 101.928 399.173C106.728 399.173 110.568 403.205 110.568 407.813C110.568 412.613 106.728 416.453 101.928 416.453C97.1279 416.453 93.2879 412.613 93.2879 407.813Z" stroke="#A588FF"/>
<path d="M125.353 407.813H78.5046" stroke="#A588FF"/>
<path d="M101.929 384.581V431.237" stroke="#A588FF"/>
<path d="M322.537 639.75H0.745178" stroke="#A588FF"/>
<path d="M332.137 630.15H0.745178" stroke="#A588FF"/>
<path d="M341.737 620.55H0.745178" stroke="#A588FF"/>
<path d="M400.296 308.358H143.208" stroke="#A588FF"/>
<path d="M333.675 308.357L231.531 206.213H142.059" stroke="#A588FF"/>
<path d="M439.85 193.733L260.138 14.0211H123.434" stroke="#A588FF"/>
<path d="M114.795 14.0212C114.795 18.8212 118.635 22.6612 123.435 22.6612C128.235 22.6612 132.075 18.8212 132.075 14.0212C132.075 9.22117 128.235 5.38116 123.435 5.38116C118.635 5.38116 114.795 9.22117 114.795 14.0212Z" stroke="#A588FF"/>
<path d="M303.335 308.357L244.199 249.221H204.646" stroke="#A588FF"/>
<path d="M134.568 14.0212C134.568 18.8212 138.408 22.6612 143.208 22.6612C148.008 22.6612 151.848 18.8212 151.848 14.0212C151.848 9.22117 148.008 5.38116 143.208 5.38116C138.408 5.38116 134.568 9.22117 134.568 14.0212Z" stroke="#A588FF"/>
<path d="M154.346 14.0212C154.346 18.8212 158.378 22.6612 162.986 22.6612C167.786 22.6612 171.626 18.8212 171.626 14.0212C171.626 9.22117 167.786 5.38116 162.986 5.38116C158.378 5.38116 154.346 9.22117 154.346 14.0212Z" stroke="#A588FF"/>
<path d="M361.129 308.358L241.513 187.398H77.3531" stroke="#A588FF"/>
<path d="M60.0754 187.398C60.0754 192.198 63.9154 196.038 68.7154 196.038C73.5154 196.038 77.3554 192.198 77.3554 187.398C77.3554 182.79 73.5154 178.95 68.7154 178.95C63.9154 178.95 60.0754 182.79 60.0754 187.398Z" stroke="#A588FF"/>
<path d="M322.537 76.4211H0.745178" stroke="#A588FF"/>
<path d="M332.137 86.0211H0.745178" stroke="#A588FF"/>
<path d="M341.737 95.6211H0.745178" stroke="#A588FF"/>
<path d="M517.033 611.526L466.537 662.022" stroke="#A588FF"/>
<path d="M539.882 628.421L493.994 683.141" stroke="#A588FF"/>
<path d="M564.074 643.205L523.178 701.573" stroke="#A588FF"/>
<path d="M589.61 655.685L553.898 717.509" stroke="#A588FF"/>
<path d="M615.911 666.053L585.767 730.757" stroke="#A588FF"/>
<path d="M492.649 126.342L401.833 35.5255V-35.5145L315.433 -121.915" stroke="#A588FF" stroke-linecap="square"/>
<path d="M720.745 753.797C623.977 753.797 535.273 718.853 466.537 661.061" stroke="#A588FF"/>
<path d="M483.627 41.4773C549.675 -8.25074 631.851 -37.6267 720.747 -37.6267" stroke="#A588FF"/>
<path d="M341.736 244.421C349.224 219.653 359.016 195.845 370.728 173.573" stroke="#A588FF"/>
</g>
<path d="M1339.76 14.9817C1339.76 17.4777 1337.83 19.3977 1335.53 19.3977C1333.03 19.3977 1331.12 17.4777 1331.12 14.9817C1331.12 12.6777 1333.03 10.7577 1335.53 10.7577C1337.83 10.7577 1339.76 12.6777 1339.76 14.9817Z" fill="white"/>
<path d="M1302.7 309.317C1302.7 311.621 1300.78 313.541 1298.48 313.541C1296.17 313.541 1294.06 311.621 1294.06 309.317C1294.06 306.821 1296.17 304.901 1298.48 304.901C1300.78 304.901 1302.7 306.821 1302.7 309.317Z" fill="white"/>
<path d="M1050.41 96.9658C1050.41 99.2698 1048.49 101.19 1046.19 101.19C1043.69 101.19 1041.77 99.2698 1041.77 96.9658C1041.77 94.4698 1043.69 92.5498 1046.19 92.5498C1048.49 92.5498 1050.41 94.4698 1050.41 96.9658Z" fill="white"/>
<path d="M1062.7 96.9658C1062.7 99.2698 1060.78 101.19 1058.47 101.19C1056.17 101.19 1054.25 99.2698 1054.25 96.9658C1054.25 94.4698 1056.17 92.5498 1058.47 92.5498C1060.78 92.5498 1062.7 94.4698 1062.7 96.9658Z" fill="white"/>
<path d="M1377.2 188.357C1377.2 190.853 1375.28 192.773 1372.97 192.773C1370.67 192.773 1368.56 190.853 1368.56 188.357C1368.56 186.053 1370.67 184.133 1372.97 184.133C1375.28 184.133 1377.2 186.053 1377.2 188.357Z" fill="white"/>
<path d="M1241.26 250.182C1241.26 252.486 1239.34 254.598 1237.04 254.598C1234.73 254.598 1232.62 252.486 1232.62 250.182C1232.62 247.878 1234.73 245.958 1237.04 245.958C1239.34 245.958 1241.26 247.878 1241.26 250.182Z" fill="white"/>
<path d="M725.164 33.7971C725.164 36.1011 723.244 38.0211 720.748 38.0211C718.444 38.0211 716.524 36.1011 716.524 33.7971C716.524 31.3011 718.444 29.3811 720.748 29.3811C723.244 29.3811 725.164 31.3011 725.164 33.7971Z" fill="white"/>
<path d="M1339.76 703.11C1339.76 700.614 1337.83 698.693 1335.53 698.693C1333.03 698.693 1331.12 700.614 1331.12 703.11C1331.12 705.414 1333.03 707.333 1335.53 707.333C1337.83 707.333 1339.76 705.414 1339.76 703.11Z" fill="white"/>
<path d="M1302.7 408.774C1302.7 406.47 1300.78 404.55 1298.48 404.55C1296.17 404.55 1294.06 406.47 1294.06 408.774C1294.06 411.27 1296.17 413.19 1298.48 413.19C1300.78 413.19 1302.7 411.27 1302.7 408.774Z" fill="white"/>
<path d="M1304.05 510.918C1304.05 508.614 1302.13 506.694 1299.63 506.694C1297.33 506.694 1295.41 508.614 1295.41 510.918C1295.41 513.414 1297.33 515.334 1299.63 515.334C1302.13 515.334 1304.05 513.414 1304.05 510.918Z" fill="white"/>
<path d="M1377.2 529.734C1377.2 527.238 1375.28 525.318 1372.97 525.318C1370.67 525.318 1368.56 527.238 1368.56 529.734C1368.56 532.038 1370.67 533.958 1372.97 533.958C1375.28 533.958 1377.2 532.038 1377.2 529.734Z" fill="white"/>
<path d="M979.566 55.1092C979.566 57.4132 977.646 59.3333 975.15 59.3333C972.846 59.3333 970.926 57.4132 970.926 55.1092C970.926 52.6132 972.846 50.6933 975.15 50.6933C977.646 50.6933 979.566 52.6132 979.566 55.1092Z" fill="white"/>
<path d="M952.11 33.6051C952.302 36.1011 950.382 38.2131 948.078 38.4051C945.774 38.5971 943.662 36.8691 943.47 34.3731C943.278 32.0691 945.006 29.9571 947.31 29.7651C949.806 29.5731 951.726 31.3011 952.11 33.6051Z" fill="white"/>
<path d="M922.733 14.7894C923.117 17.0934 921.581 19.3974 919.277 19.7814C916.973 20.1654 914.669 18.6294 914.285 16.3254C913.901 13.8294 915.437 11.7174 917.741 11.3334C920.045 10.7574 922.349 12.4854 922.733 14.7894Z" fill="white"/>
<path d="M892.01 -1.53046C892.586 0.773538 891.242 3.07754 888.938 3.65354C886.634 4.42154 884.33 3.07754 883.754 0.77354C882.986 -1.53046 884.522 -4.02647 886.634 -4.60247C888.938 -5.17847 891.434 -3.83446 892.01 -1.53046Z" fill="white"/>
<path d="M725.164 684.294C725.164 681.99 723.244 680.07 720.748 680.07C718.444 680.07 716.524 681.99 716.524 684.294C716.524 686.79 718.444 688.71 720.748 688.71C723.244 688.71 725.164 686.79 725.164 684.294Z" fill="white"/>
<path d="M101.93 703.11C101.93 700.614 103.85 698.693 106.154 698.693C108.65 698.693 110.57 700.614 110.57 703.11C110.57 705.414 108.65 707.333 106.154 707.333C103.85 707.333 101.93 705.414 101.93 703.11Z" fill="white"/>
<path d="M138.989 408.774C138.989 406.47 140.909 404.55 143.213 404.55C145.517 404.55 147.437 406.47 147.437 408.774C147.437 411.27 145.517 413.19 143.213 413.19C140.909 413.19 138.989 411.27 138.989 408.774Z" fill="white"/>
<path d="M391.277 621.125C391.277 618.821 393.197 616.901 395.501 616.901C397.997 616.901 399.917 618.821 399.917 621.125C399.917 623.621 397.997 625.541 395.501 625.541C393.197 625.541 391.277 623.621 391.277 621.125Z" fill="white"/>
<path d="M378.986 621.125C378.986 618.821 380.906 616.901 383.21 616.901C385.514 616.901 387.434 618.821 387.434 621.125C387.434 623.621 385.514 625.541 383.21 625.541C380.906 625.541 378.986 623.621 378.986 621.125Z" fill="white"/>
<path d="M64.4894 529.734C64.4894 527.238 66.4095 525.318 68.7135 525.318C71.0175 525.318 72.9375 527.238 72.9375 529.734C72.9375 532.038 71.0175 533.958 68.7135 533.958C66.4095 533.958 64.4894 532.038 64.4894 529.734Z" fill="white"/>
<path d="M200.428 467.91C200.428 465.606 202.347 463.493 204.651 463.493C206.955 463.493 208.875 465.606 208.875 467.91C208.875 470.214 206.955 472.134 204.651 472.134C202.347 472.134 200.428 470.214 200.428 467.91Z" fill="white"/>
<path d="M101.93 14.9817C101.93 17.4777 103.85 19.3977 106.154 19.3977C108.65 19.3977 110.57 17.4777 110.57 14.9817C110.57 12.6777 108.65 10.7577 106.154 10.7577C103.85 10.7577 101.93 12.6777 101.93 14.9817Z" fill="white"/>
<path d="M138.989 309.317C138.989 311.621 140.909 313.541 143.213 313.541C145.517 313.541 147.437 311.621 147.437 309.317C147.437 306.821 145.517 304.901 143.213 304.901C140.909 304.901 138.989 306.821 138.989 309.317Z" fill="white"/>
<path d="M137.645 207.174C137.645 209.478 139.565 211.398 142.061 211.398C144.365 211.398 146.285 209.478 146.285 207.174C146.285 204.678 144.365 202.758 142.061 202.758C139.565 202.758 137.645 204.678 137.645 207.174Z" fill="white"/>
<path d="M64.4894 188.357C64.4894 190.853 66.4095 192.773 68.7135 192.773C71.0175 192.773 72.9375 190.853 72.9375 188.357C72.9375 186.053 71.0175 184.133 68.7135 184.133C66.4095 184.133 64.4894 186.053 64.4894 188.357Z" fill="white"/>
<path d="M462.123 662.982C462.123 660.678 464.043 658.758 466.539 658.758C468.843 658.758 470.763 660.678 470.763 662.982C470.763 665.478 468.843 667.398 466.539 667.398C464.043 667.398 462.123 665.478 462.123 662.982Z" fill="white"/>
<path d="M489.578 684.485C489.386 681.989 491.114 679.877 493.61 679.685C495.914 679.493 498.026 681.221 498.218 683.717C498.41 686.021 496.682 688.133 494.378 688.325C491.882 688.517 489.77 686.789 489.578 684.485Z" fill="white"/>
<path d="M518.956 703.302C518.572 700.998 520.108 698.694 522.412 698.31C524.716 697.926 527.02 699.462 527.404 701.766C527.788 704.262 526.252 706.374 523.948 706.758C521.452 707.334 519.34 705.606 518.956 703.302Z" fill="white"/>
<path d="M549.674 719.621C549.098 717.317 550.442 715.013 552.746 714.437C555.05 713.669 557.354 715.013 557.93 717.317C558.698 719.621 557.162 722.117 554.858 722.693C552.554 723.269 550.25 721.925 549.674 719.621Z" fill="white"/>
<path d="M581.74 733.253C580.972 730.949 582.124 728.453 584.236 727.685C586.54 726.917 589.036 728.069 589.804 730.181C590.572 732.485 589.42 734.981 587.308 735.749C585.004 736.517 582.508 735.365 581.74 733.253Z" fill="white"/>
<path d="M1046.19 359.046C1046.19 538.758 900.459 684.294 720.747 684.294C541.227 684.294 395.499 538.758 395.499 359.046C395.499 179.334 541.227 33.7977 720.747 33.7977C900.459 33.7977 1046.19 179.334 1046.19 359.046Z" stroke="#A588FF"/>
<path d="M1046.19 359.046H1440.75" stroke="#A588FF"/>
<path d="M1041.39 309.318H1298.48" stroke="#A588FF"/>
<path d="M1108.01 309.317L1210.15 207.173H1299.63" stroke="#A588FF"/>
<path d="M1001.84 194.693L1181.55 14.9812H1318.25" stroke="#A588FF"/>
<path d="M1326.89 14.9811C1326.89 19.7811 1323.05 23.6211 1318.25 23.6211C1313.45 23.6211 1309.61 19.7811 1309.61 14.9811C1309.61 10.1811 1313.45 6.34114 1318.25 6.34114C1323.05 6.34114 1326.89 10.1811 1326.89 14.9811Z" stroke="#A588FF"/>
<path d="M1138.35 309.317L1197.29 250.181H1237.04" stroke="#A588FF"/>
<path d="M1307.12 14.9811C1307.12 19.7811 1303.28 23.6211 1298.48 23.6211C1293.68 23.6211 1289.84 19.7811 1289.84 14.9811C1289.84 10.1811 1293.68 6.34114 1298.48 6.34114C1303.28 6.34114 1307.12 10.1811 1307.12 14.9811Z" stroke="#A588FF"/>
<path d="M1287.15 14.9811C1287.15 19.7811 1283.31 23.6211 1278.7 23.6211C1273.9 23.6211 1270.06 19.7811 1270.06 14.9811C1270.06 10.1811 1273.9 6.34114 1278.7 6.34114C1283.31 6.34114 1287.15 10.1811 1287.15 14.9811Z" stroke="#A588FF"/>
<path d="M1046.19 364.038H1439.02" stroke="#A588FF"/>
<path d="M1080.56 309.318L1200.17 188.358H1364.33" stroke="#A588FF"/>
<path d="M1381.61 188.358C1381.61 193.158 1377.77 196.998 1372.97 196.998C1368.17 196.998 1364.33 193.158 1364.33 188.358C1364.33 183.75 1368.17 179.91 1372.97 179.91C1377.77 179.91 1381.61 183.75 1381.61 188.358Z" stroke="#A588FF"/>
<path d="M729.387 33.7977C729.387 38.5977 725.547 42.4377 720.747 42.4377C716.139 42.4377 712.299 38.5977 712.299 33.7977C712.299 28.9977 716.139 25.1577 720.747 25.1577C725.547 25.1577 729.387 28.9977 729.387 33.7977Z" stroke="#A588FF"/>
<path d="M1011.82 96.9655C1011.82 101.766 1007.98 105.606 1003.18 105.606C998.379 105.606 994.539 101.766 994.539 96.9655C994.539 92.1655 998.379 88.3255 1003.18 88.3255C1007.98 88.3255 1011.82 92.1655 1011.82 96.9655Z" stroke="#A588FF"/>
<path d="M979.756 96.9656H1026.6" stroke="#A588FF"/>
<path d="M1003.18 120.389V73.5412" stroke="#A588FF"/>
<path d="M1348.4 309.318C1348.4 313.926 1344.56 317.958 1339.76 317.958C1334.96 317.958 1331.12 313.926 1331.12 309.318C1331.12 304.518 1334.96 300.678 1339.76 300.678C1344.56 300.678 1348.4 304.518 1348.4 309.318Z" stroke="#A588FF"/>
<path d="M1316.33 309.318H1363.18" stroke="#A588FF"/>
<path d="M1339.76 332.549V285.893" stroke="#A588FF"/>
<path d="M1119.15 77.3811H1440.75" stroke="#A588FF"/>
<path d="M1109.55 86.9812H1440.75" stroke="#A588FF"/>
<path d="M1099.95 96.5812H1440.75" stroke="#A588FF"/>
<path d="M1041.39 408.773H1298.48" stroke="#A588FF"/>
<path d="M1108.01 408.773L1210.15 510.918H1299.63" stroke="#A588FF"/>
<path d="M1001.84 523.398L1181.55 703.11H1318.25" stroke="#A588FF"/>
<path d="M1326.89 703.11C1326.89 698.31 1323.05 694.47 1318.25 694.47C1313.45 694.47 1309.61 698.31 1309.61 703.11C1309.61 707.91 1313.45 711.75 1318.25 711.75C1323.05 711.75 1326.89 707.91 1326.89 703.11Z" stroke="#A588FF"/>
<path d="M1138.35 408.773L1197.29 467.91H1237.04" stroke="#A588FF"/>
<path d="M1307.12 703.11C1307.12 698.31 1303.28 694.47 1298.48 694.47C1293.68 694.47 1289.84 698.31 1289.84 703.11C1289.84 707.91 1293.68 711.75 1298.48 711.75C1303.28 711.75 1307.12 707.91 1307.12 703.11Z" stroke="#A588FF"/>
<path d="M1287.15 703.11C1287.15 698.31 1283.31 694.47 1278.7 694.47C1273.9 694.47 1270.06 698.31 1270.06 703.11C1270.06 707.91 1273.9 711.75 1278.7 711.75C1283.31 711.75 1287.15 707.91 1287.15 703.11Z" stroke="#A588FF"/>
<path d="M1080.56 408.773L1200.17 529.733H1364.33" stroke="#A588FF"/>
<path d="M1381.61 529.733C1381.61 524.933 1377.77 521.093 1372.97 521.093C1368.17 521.093 1364.33 524.933 1364.33 529.733C1364.33 534.341 1368.17 538.181 1372.97 538.181C1377.77 538.181 1381.61 534.341 1381.61 529.733Z" stroke="#A588FF"/>
<path d="M1089.2 717.125C1089.2 712.325 1085.36 708.485 1080.56 708.485C1075.76 708.485 1071.92 712.325 1071.92 717.125C1071.92 721.925 1075.76 725.765 1080.56 725.765C1085.36 725.765 1089.2 721.925 1089.2 717.125Z" stroke="#A588FF"/>
<path d="M1057.13 717.126H1103.98" stroke="#A588FF"/>
<path d="M1080.56 693.701V740.549" stroke="#A588FF"/>
<path d="M1119.15 640.71H1440.75" stroke="#A588FF"/>
<path d="M1109.55 631.11H1440.75" stroke="#A588FF"/>
<path d="M1099.95 621.51H1440.75" stroke="#A588FF"/>
<path d="M924.651 105.606L975.147 55.1099" stroke="#A588FF"/>
<path d="M901.805 88.7099L947.693 33.9899" stroke="#A588FF"/>
<path d="M877.61 73.9257L918.506 15.5577" stroke="#A588FF"/>
<path d="M852.076 61.4452L887.788 -0.378815" stroke="#A588FF"/>
<path d="M825.769 51.0773L855.913 -13.6267" stroke="#A588FF"/>
<path d="M720.746 33.7975V-37.6265L750.122 -67.0025V-120.955" stroke="#A588FF"/>
<path d="M729.387 684.293C729.387 679.493 725.547 675.653 720.747 675.653C716.139 675.653 712.299 679.493 712.299 684.293C712.299 689.093 716.139 692.933 720.747 692.933C725.547 692.933 729.387 689.093 729.387 684.293Z" stroke="#A588FF"/>
<path d="M949.038 590.79L1039.85 681.606V752.646" stroke="#A588FF" stroke-linecap="square"/>
<path d="M720.746 -36.6667C817.706 -36.6667 906.41 -1.72275 975.146 56.0693" stroke="#A588FF"/>
<path d="M958.058 675.653C892.01 725.381 809.834 754.757 720.746 754.757" stroke="#A588FF"/>
<path d="M1099.95 472.71C1092.46 497.478 1082.67 521.286 1070.96 543.558" stroke="#A588FF"/>
<path d="M395.498 359.046H0.746155" stroke="#A588FF"/>
<path d="M400.299 408.773H143.211" stroke="#A588FF"/>
<path d="M333.676 408.773L231.532 510.918H142.06" stroke="#A588FF"/>
<path d="M439.851 523.398L260.139 703.11H123.435" stroke="#A588FF"/>
<path d="M114.796 703.11C114.796 698.31 118.636 694.47 123.436 694.47C128.236 694.47 132.076 698.31 132.076 703.11C132.076 707.91 128.236 711.75 123.436 711.75C118.636 711.75 114.796 707.91 114.796 703.11Z" stroke="#A588FF"/>
<path d="M303.337 408.773L244.201 467.91H204.649" stroke="#A588FF"/>
<path d="M134.568 703.11C134.568 698.31 138.408 694.47 143.208 694.47C148.008 694.47 151.848 698.31 151.848 703.11C151.848 707.91 148.008 711.75 143.208 711.75C138.408 711.75 134.568 707.91 134.568 703.11Z" stroke="#A588FF"/>
<path d="M154.348 703.11C154.348 698.31 158.38 694.47 162.988 694.47C167.788 694.47 171.628 698.31 171.628 703.11C171.628 707.91 167.788 711.75 162.988 711.75C158.38 711.75 154.348 707.91 154.348 703.11Z" stroke="#A588FF"/>
<path d="M395.499 354.053H2.66675" stroke="#A588FF"/>
<path d="M361.132 408.773L241.516 529.733H77.356" stroke="#A588FF"/>
<path d="M60.0783 529.733C60.0783 524.933 63.9183 521.093 68.7183 521.093C73.5183 521.093 77.3583 524.933 77.3583 529.733C77.3583 534.341 73.5183 538.181 68.7183 538.181C63.9183 538.181 60.0783 534.341 60.0783 529.733Z" stroke="#A588FF"/>
<path d="M429.867 621.126C429.867 616.326 433.707 612.486 438.507 612.486C443.307 612.486 447.147 616.326 447.147 621.126C447.147 625.926 443.307 629.766 438.507 629.766C433.707 629.766 429.867 625.926 429.867 621.126Z" stroke="#A588FF"/>
<path d="M461.931 621.126H415.084" stroke="#A588FF"/>
<path d="M438.508 597.701V644.549" stroke="#A588FF"/>
<path d="M93.2889 408.774C93.2889 404.166 97.1289 400.134 101.929 400.134C106.729 400.134 110.569 404.166 110.569 408.774C110.569 413.574 106.729 417.414 101.929 417.414C97.1289 417.414 93.2889 413.574 93.2889 408.774Z" stroke="#A588FF"/>
<path d="M125.356 408.773H78.5076" stroke="#A588FF"/>
<path d="M101.93 385.541V432.197" stroke="#A588FF"/>
<path d="M322.538 640.71H0.746155" stroke="#A588FF"/>
<path d="M332.138 631.11H0.746155" stroke="#A588FF"/>
<path d="M341.738 621.51H0.746155" stroke="#A588FF"/>
<path d="M400.299 309.318H143.211" stroke="#A588FF"/>
<path d="M333.676 309.317L231.532 207.173H142.06" stroke="#A588FF"/>
<path d="M439.851 194.693L260.139 14.9812H123.435" stroke="#A588FF"/>
<path d="M114.796 14.9811C114.796 19.7811 118.636 23.6211 123.436 23.6211C128.236 23.6211 132.076 19.7811 132.076 14.9811C132.076 10.1811 128.236 6.34114 123.436 6.34114C118.636 6.34114 114.796 10.1811 114.796 14.9811Z" stroke="#A588FF"/>
<path d="M303.337 309.317L244.201 250.181H204.649" stroke="#A588FF"/>
<path d="M134.568 14.9811C134.568 19.7811 138.408 23.6211 143.208 23.6211C148.008 23.6211 151.848 19.7811 151.848 14.9811C151.848 10.1811 148.008 6.34114 143.208 6.34114C138.408 6.34114 134.568 10.1811 134.568 14.9811Z" stroke="#A588FF"/>
<path d="M154.348 14.9811C154.348 19.7811 158.38 23.6211 162.988 23.6211C167.788 23.6211 171.628 19.7811 171.628 14.9811C171.628 10.1811 167.788 6.34114 162.988 6.34114C158.38 6.34114 154.348 10.1811 154.348 14.9811Z" stroke="#A588FF"/>
<path d="M361.132 309.318L241.516 188.358H77.356" stroke="#A588FF"/>
<path d="M60.0783 188.358C60.0783 193.158 63.9183 196.998 68.7183 196.998C73.5183 196.998 77.3583 193.158 77.3583 188.358C77.3583 183.75 73.5183 179.91 68.7183 179.91C63.9183 179.91 60.0783 183.75 60.0783 188.358Z" stroke="#A588FF"/>
<path d="M322.538 77.3811H0.746155" stroke="#A588FF"/>
<path d="M332.138 86.9812H0.746155" stroke="#A588FF"/>
<path d="M341.738 96.5812H0.746155" stroke="#A588FF"/>
<path d="M517.036 612.486L466.54 662.982" stroke="#A588FF"/>
<path d="M539.885 629.381L493.997 684.101" stroke="#A588FF"/>
<path d="M564.077 644.166L523.181 702.534" stroke="#A588FF"/>
<path d="M589.613 656.646L553.901 718.47" stroke="#A588FF"/>
<path d="M615.914 667.013L585.77 731.717" stroke="#A588FF"/>
<path d="M492.652 127.302L401.836 36.4855V-34.5545L315.436 -120.955" stroke="#A588FF" stroke-linecap="square"/>
<path d="M720.748 754.757C623.98 754.757 535.276 719.813 466.54 662.021" stroke="#A588FF"/>
<path d="M483.628 42.4373C549.676 -7.29075 631.852 -36.6667 720.748 -36.6667" stroke="#A588FF"/>
<path d="M341.739 245.381C349.227 220.613 359.019 196.805 370.731 174.533" stroke="#A588FF"/>
</g>
</g>
</svg>
