<svg width="350" height="350" viewBox="0 0 350 350" fill="none" xmlns="http://www.w3.org/2000/svg">
<g filter="url(#filter0_bd_0_314)">
<rect x="57.1582" y="47.5039" width="184" height="150" rx="20" transform="rotate(-14.8231 57.1582 47.5039)" fill="#919AFF" fill-opacity="0.4" shape-rendering="crispEdges"/>
<rect x="57.1582" y="47.5039" width="184" height="150" rx="20" transform="rotate(-14.8231 57.1582 47.5039)" stroke="white" stroke-opacity="0.2" stroke-width="2" shape-rendering="crispEdges"/>
</g>
<g opacity="0.7">
<path d="M219.821 40.6611C218.408 35.3221 212.934 32.1394 207.595 33.5523L97.3893 62.7177C92.0503 64.1306 88.8675 69.6042 90.2805 74.9432L110.747 152.281C112.16 157.62 117.634 160.803 122.973 159.39L233.179 130.224C238.518 128.811 241.701 123.338 240.288 117.999L219.821 40.6611Z" fill="white"/>
<path fill-rule="evenodd" clip-rule="evenodd" d="M211.2 85.4472L234.262 95.2278L219.759 40.4268C218.346 35.0878 212.872 31.905 207.533 33.318L97.3273 62.4833C91.9882 63.8963 88.8055 69.3698 90.2185 74.7089L94.0121 89.0437L137.754 103.852C140.588 105.299 144.241 104.444 146.161 101.884L155.403 89.556C157.367 86.9362 161.135 86.1112 163.98 87.6782L188.323 101.086C191.501 102.836 195.735 101.581 197.419 98.3895L202.675 88.4204C204.243 85.4484 208.062 84.1162 211.2 85.4472ZM198.832 70.4644C205.647 68.6609 209.832 62.1366 208.179 55.8918C206.526 49.6471 199.662 46.0467 192.847 47.8503C186.032 49.6538 181.848 56.1782 183.5 62.4229C185.153 68.6676 192.017 72.268 198.832 70.4644Z" fill="#0015FF" fill-opacity="0.4"/>
</g>
<defs>
<filter id="filter0_bd_0_314" x="0.604187" y="-16.124" width="349.36" height="365.19" filterUnits="userSpaceOnUse" color-interpolation-filters="sRGB">
<feFlood flood-opacity="0" result="BackgroundImageFix"/>
<feGaussianBlur in="BackgroundImageFix" stdDeviation="10"/>
<feComposite in2="SourceAlpha" operator="in" result="effect1_backgroundBlur_0_314"/>
<feColorMatrix in="SourceAlpha" type="matrix" values="0 0 0 0 0 0 0 0 0 0 0 0 0 0 0 0 0 0 127 0" result="hardAlpha"/>
<feOffset dx="10" dy="90"/>
<feGaussianBlur stdDeviation="35"/>
<feComposite in2="hardAlpha" operator="out"/>
<feColorMatrix type="matrix" values="0 0 0 0 0.12549 0 0 0 0 0.12549 0 0 0 0 0.12549 0 0 0 0.2 0"/>
<feBlend mode="normal" in2="effect1_backgroundBlur_0_314" result="effect2_dropShadow_0_314"/>
<feBlend mode="normal" in="SourceGraphic" in2="effect2_dropShadow_0_314" result="shape"/>
</filter>
</defs>
</svg>
