<svg width="31" height="41" viewBox="0 0 31 41" fill="none" xmlns="http://www.w3.org/2000/svg">
<path d="M15.4574 0.0687866C16.5585 0.0687866 17.6489 0.30393 18.6662 0.760791C19.6835 1.21765 20.6079 1.88728 21.3865 2.73145C22.1651 3.57562 22.7828 4.5778 23.2042 5.68076C23.6255 6.78372 23.8424 7.96586 23.8424 9.1597V16.4324C23.8424 18.8435 22.959 21.1558 21.3865 22.8607C19.814 24.5655 17.6812 25.5233 15.4574 25.5233C13.2335 25.5233 11.1008 24.5655 9.52826 22.8607C7.95576 21.1558 7.07234 18.8435 7.07234 16.4324V9.1597C7.07234 6.74864 7.95576 4.43633 9.52826 2.73145C11.1008 1.02658 13.2335 0.0687866 15.4574 0.0687866ZM0.456543 18.2506H3.83571C4.24204 21.2775 5.63996 24.0446 7.77372 26.0456C9.90748 28.0467 12.6344 29.148 15.4557 29.148C18.277 29.148 21.0039 28.0467 23.1377 26.0456C25.2715 24.0446 26.6694 21.2775 27.0757 18.2506H30.4565C30.0752 21.9392 28.5491 25.3778 26.1285 28.0025C23.7079 30.6272 20.5365 32.2822 17.1344 32.6961V40.0688H13.7804V32.6961C10.378 32.2826 7.20614 30.6278 4.7852 28.003C2.36425 25.3783 0.837916 21.9394 0.456543 18.2506Z" fill="#121416"/>
</svg>
