<svg width="331" height="345" viewBox="0 0 331 345" fill="none" xmlns="http://www.w3.org/2000/svg">
<g filter="url(#filter0_bd_0_319)">
<rect x="56.9662" y="43.3076" width="164.13" height="150" rx="20" transform="rotate(-14.8231 56.9662 43.3076)" fill="#919AFF" fill-opacity="0.4" shape-rendering="crispEdges"/>
<rect x="56.9662" y="43.3076" width="164.13" height="150" rx="20" transform="rotate(-14.8231 56.9662 43.3076)" stroke="white" stroke-opacity="0.2" stroke-width="2" shape-rendering="crispEdges"/>
</g>
<path d="M210.964 74.8664C218.351 78.6227 219.921 87.8457 214.164 93.8073C204.022 104.31 186.434 119.17 163.649 125.275C140.865 131.38 118.203 127.305 104.168 123.281C96.2022 120.996 92.9497 112.224 97.4689 105.277C106.453 91.4672 123.405 70.7674 147.327 64.3575C171.248 57.9477 196.279 67.3986 210.964 74.8664Z" fill="white"/>
<g filter="url(#filter1_b_0_319)">
<circle cx="155.488" cy="94.8164" r="27.6216" fill="#0015FF" fill-opacity="0.4"/>
</g>
<defs>
<filter id="filter0_bd_0_319" x="0.412109" y="-15.2369" width="330.152" height="360.107" filterUnits="userSpaceOnUse" color-interpolation-filters="sRGB">
<feFlood flood-opacity="0" result="BackgroundImageFix"/>
<feGaussianBlur in="BackgroundImageFix" stdDeviation="10"/>
<feComposite in2="SourceAlpha" operator="in" result="effect1_backgroundBlur_0_319"/>
<feColorMatrix in="SourceAlpha" type="matrix" values="0 0 0 0 0 0 0 0 0 0 0 0 0 0 0 0 0 0 127 0" result="hardAlpha"/>
<feOffset dx="10" dy="90"/>
<feGaussianBlur stdDeviation="35"/>
<feComposite in2="hardAlpha" operator="out"/>
<feColorMatrix type="matrix" values="0 0 0 0 0.12549 0 0 0 0 0.12549 0 0 0 0 0.12549 0 0 0 0.2 0"/>
<feBlend mode="normal" in2="effect1_backgroundBlur_0_319" result="effect2_dropShadow_0_319"/>
<feBlend mode="normal" in="SourceGraphic" in2="effect2_dropShadow_0_319" result="shape"/>
</filter>
<filter id="filter1_b_0_319" x="107.866" y="47.1948" width="95.2432" height="95.2432" filterUnits="userSpaceOnUse" color-interpolation-filters="sRGB">
<feFlood flood-opacity="0" result="BackgroundImageFix"/>
<feGaussianBlur in="BackgroundImageFix" stdDeviation="10"/>
<feComposite in2="SourceAlpha" operator="in" result="effect1_backgroundBlur_0_319"/>
<feBlend mode="normal" in="SourceGraphic" in2="effect1_backgroundBlur_0_319" result="shape"/>
</filter>
</defs>
</svg>
