<svg width="346" height="327" viewBox="0 0 346 327" fill="none" xmlns="http://www.w3.org/2000/svg">
<g filter="url(#filter0_bd_0_309)">
<path d="M90.5298 14.2846C94.4023 3.94005 105.928 -1.3066 116.272 2.56594L251.992 53.3733C262.337 57.2458 267.583 68.7711 263.711 79.1157L236.066 152.962C232.194 163.306 220.668 168.553 210.324 164.68L143.978 139.844C142.994 139.475 141.918 139.426 140.905 139.704L84.8817 155.04C80.1932 156.323 76.6158 150.839 79.6803 147.065L94.7853 128.466C96.9397 125.814 95.8574 121.83 92.657 120.631L74.6038 113.873C64.2592 110.001 59.0126 98.4753 62.8852 88.1307L90.5298 14.2846Z" fill="#919AFF" fill-opacity="0.4" shape-rendering="crispEdges"/>
<path d="M90.5298 14.2846C94.4023 3.94005 105.928 -1.3066 116.272 2.56594L251.992 53.3733C262.337 57.2458 267.583 68.7711 263.711 79.1157L236.066 152.962C232.194 163.306 220.668 168.553 210.324 164.68L143.978 139.844C142.994 139.475 141.918 139.426 140.905 139.704L84.8817 155.04C80.1932 156.323 76.6158 150.839 79.6803 147.065L94.7853 128.466C96.9397 125.814 95.8574 121.83 92.657 120.631L74.6038 113.873C64.2592 110.001 59.0126 98.4753 62.8852 88.1307L90.5298 14.2846Z" stroke="white" stroke-opacity="0.2" stroke-width="2" shape-rendering="crispEdges"/>
</g>
<defs>
<filter id="filter0_bd_0_309" x="0.610016" y="-19.7092" width="345.376" height="346.665" filterUnits="userSpaceOnUse" color-interpolation-filters="sRGB">
<feFlood flood-opacity="0" result="BackgroundImageFix"/>
<feGaussianBlur in="BackgroundImageFix" stdDeviation="10"/>
<feComposite in2="SourceAlpha" operator="in" result="effect1_backgroundBlur_0_309"/>
<feColorMatrix in="SourceAlpha" type="matrix" values="0 0 0 0 0 0 0 0 0 0 0 0 0 0 0 0 0 0 127 0" result="hardAlpha"/>
<feOffset dx="10" dy="90"/>
<feGaussianBlur stdDeviation="35"/>
<feComposite in2="hardAlpha" operator="out"/>
<feColorMatrix type="matrix" values="0 0 0 0 0.12549 0 0 0 0 0.12549 0 0 0 0 0.12549 0 0 0 0.2 0"/>
<feBlend mode="normal" in2="effect1_backgroundBlur_0_309" result="effect2_dropShadow_0_309"/>
<feBlend mode="normal" in="SourceGraphic" in2="effect2_dropShadow_0_309" result="shape"/>
</filter>
</defs>
</svg>
