<svg width="20" height="21" viewBox="0 0 20 21" fill="none" xmlns="http://www.w3.org/2000/svg">
<path fill-rule="evenodd" clip-rule="evenodd" d="M1.66699 4.66666C1.66699 3.28594 2.78628 2.16666 4.16699 2.16666H15.8337C17.2144 2.16666 18.3337 3.28594 18.3337 4.66666V16.3333C18.3337 17.714 17.2144 18.8333 15.8337 18.8333H4.16699C2.78628 18.8333 1.66699 17.714 1.66699 16.3333V4.66666Z" fill="#5871EB"/>
<path fill-rule="evenodd" clip-rule="evenodd" d="M14.0952 7.4108C14.4206 7.73623 14.4206 8.26387 14.0952 8.58931L8.92259 14.006C8.59715 14.3314 8.06951 14.3314 7.74408 14.006L5.24408 11.506C4.91864 11.1805 4.91864 10.6529 5.24408 10.3275C5.56951 10.002 6.09715 10.002 6.42259 10.3275L8.33333 12.2382L12.9167 7.4108C13.2421 7.08536 13.7697 7.08536 14.0952 7.4108Z" fill="white"/>
</svg>
