<svg width="25" height="31" viewBox="0 0 25 31" fill="none" xmlns="http://www.w3.org/2000/svg">
<path d="M1.73975 0.494338L24.3799 14.3638C24.5422 14.4636 24.6768 14.6062 24.7703 14.7775C24.8638 14.9487 24.913 15.1427 24.913 15.3401C24.913 15.5376 24.8638 15.7316 24.7703 15.9028C24.6768 16.0741 24.5422 16.2167 24.3799 16.3164L1.73975 30.186C1.57572 30.2865 1.3893 30.3397 1.19938 30.3401C1.00946 30.3406 0.822795 30.2884 0.658305 30.1887C0.493814 30.089 0.357343 29.9454 0.262724 29.7725C0.168105 29.5996 0.1187 29.4034 0.119517 29.204V1.47176C0.119461 1.27271 0.16942 1.07717 0.264349 0.904875C0.359279 0.732583 0.495818 0.589643 0.66018 0.49049C0.824541 0.391337 1.01091 0.33948 1.20046 0.340155C1.39001 0.340831 1.57603 0.394016 1.73975 0.494338Z" fill="#121416"></path>
</svg>
