<svg width="34" height="39" viewBox="0 0 34 39" fill="none" xmlns="http://www.w3.org/2000/svg">
<path d="M33.6666 39L24.9166 30.6667L25.9666 34H4.49998C3.39491 34 2.3351 33.561 1.5537 32.7796C0.7723 31.9982 0.333313 30.9384 0.333313 29.8334V4.83335C0.333313 3.72828 0.7723 2.66848 1.5537 1.88708C2.3351 1.10567 3.39491 0.666687 4.49998 0.666687H29.5C30.605 0.666687 31.6649 1.10567 32.4463 1.88708C33.2277 2.66848 33.6666 3.72828 33.6666 4.83335V39ZM17 10.3334C12.5333 10.3334 9.39998 12.25 9.39998 12.25C11.1166 10.7167 14.1166 9.83335 14.1166 9.83335L13.8333 9.55002C11.0166 9.60002 8.46665 11.55 8.46665 11.55C5.59998 17.5334 5.78331 22.7 5.78331 22.7C8.11665 25.7167 11.5833 25.5 11.5833 25.5L12.7666 24C10.6833 23.55 9.36665 21.7 9.36665 21.7C9.36665 21.7 12.5 23.8334 17 23.8334C21.5 23.8334 24.6333 21.7 24.6333 21.7C24.6333 21.7 23.3166 23.55 21.2333 24L22.4166 25.5C22.4166 25.5 25.8833 25.7167 28.2166 22.7C28.2166 22.7 28.4 17.5334 25.5333 11.55C25.5333 11.55 22.9833 9.60002 20.1666 9.55002L19.8833 9.83335C19.8833 9.83335 22.8833 10.7167 24.6 12.25C24.6 12.25 21.4666 10.3334 17 10.3334M13.55 16.65C14.6333 16.65 15.5166 17.6 15.5 18.7667C15.5 19.9167 14.6333 20.8834 13.55 20.8834C12.4833 20.8834 11.6166 19.9167 11.6166 18.7667C11.6166 17.6 12.4666 16.65 13.55 16.65ZM20.5 16.65C21.5833 16.65 22.45 17.6 22.45 18.7667C22.45 19.9167 21.5833 20.8834 20.5 20.8834C19.4333 20.8834 18.5666 19.9167 18.5666 18.7667C18.5666 17.6 19.4166 16.65 20.5 16.65Z" fill="white"/>
</svg>
