<svg width="34" height="34" viewBox="0 0 34 34" fill="none" xmlns="http://www.w3.org/2000/svg">
<path d="M21.1666 22.6833C21.3 22.8333 21.3 23.15 21.1666 23.3333C19.95 24.5 17.6833 24.6 17 24.6C16.35 24.6 14.0833 24.5 12.9 23.3333C12.7333 23.15 12.7333 22.8333 12.9 22.6833C13.0833 22.5167 13.3666 22.5167 13.5333 22.6833C14.3 23.45 15.8833 23.6667 17 23.6667C18.15 23.6667 19.7666 23.45 20.5 22.6833C20.6833 22.5167 20.9666 22.5167 21.1666 22.6833M14.9166 18.7333C14.9166 17.7833 14.1333 17 13.1833 17C12.2333 17 11.45 17.7833 11.45 18.7333C11.45 19.6833 12.2333 20.4833 13.1833 20.4667C14.1333 20.4667 14.9166 19.6833 14.9166 18.7333ZM20.8166 17C19.8666 17 19.0833 17.8333 19.0833 18.75C19.0833 19.6667 19.8666 20.4833 20.8166 20.4833C21.7666 20.4833 22.55 19.6833 22.55 18.75C22.55 17.8333 21.7666 17 20.8166 17ZM33.6666 17C33.6666 26.1667 26.1666 33.6667 17 33.6667C7.83331 33.6667 0.333313 26.1667 0.333313 17C0.333313 7.83334 7.83331 0.333344 17 0.333344C26.1666 0.333344 33.6666 7.83334 33.6666 17ZM28.1166 17C28.1166 15.65 27 14.5667 25.7 14.5667C25.0333 14.5667 24.4333 14.8333 24 15.25C22.3333 14.05 20.05 13.2833 17.5 13.1833L18.6166 7.96668L22.2333 8.75001C22.2666 9.66668 23.0333 10.4 23.9666 10.4C24.9166 10.4 25.7 9.61668 25.7 8.66668C25.7 7.71668 24.9166 6.93334 23.9666 6.93334C23.2833 6.93334 22.6833 7.33334 22.4166 7.91668L18.3666 7.05001C18.25 7.00001 18.1333 7.05001 18.05 7.11668C17.95 7.18334 17.9 7.28334 17.8833 7.40001L16.65 13.2C14.0666 13.2833 11.7333 14.05 10.0333 15.2667C9.59998 14.85 8.99998 14.6 8.34998 14.6C6.99998 14.6 5.91665 15.6833 5.91665 17C5.91665 18.0167 6.51665 18.85 7.34998 19.2333C7.31665 19.5 7.29998 19.7 7.29998 19.9667C7.29998 23.6667 11.65 26.75 17 26.75C22.3833 26.75 26.75 23.7167 26.75 19.9667C26.75 19.7333 26.7333 19.5 26.6833 19.2333C27.5166 18.85 28.1166 18 28.1166 17V17Z" fill="white"/>
</svg>
